<svg enable-background="new 0 0 512 512" height="512" viewBox="0 0 512 512" width="512" xmlns="http://www.w3.org/2000/svg"><path d="m455.908 283.987c0 108.2-87.709 195.91-195.91 195.91-108.2 0-195.91-87.71-195.91-195.91 0-108.196 87.71-195.91 195.91-195.91 108.201 0 195.91 87.714 195.91 195.91z" fill="#ffce54"/><path d="m339.962 383.941h167.923v31.985h-167.923z" fill="#4a89dc"/><path d="m339.962 271.992h167.923v111.949h-167.923z" fill="#5d9cec"/><path d="m196.027 32.103h143.935v151.931h-143.935z" fill="#48cfad"/><path d="m4.115 271.992h167.923v111.949h-167.923z" fill="#ac92ec"/><path d="m4.115 383.941h167.923v31.985h-167.923z" fill="#656d78"/><path d="m96.073 383.941c0 4.42-3.576 7.996-7.996 7.996s-7.997-3.576-7.997-7.996 3.577-7.996 7.997-7.996 7.996 3.576 7.996 7.996z" fill="#ccd1d9"/><path d="m116.064 323.984c0 15.462-12.533 27.987-27.987 27.987s-27.987-12.525-27.987-27.987 12.533-27.987 27.987-27.987 27.987 12.525 27.987 27.987z" fill="#ed5565"/><path d="m68.086 323.984c0-14.088 10.448-25.629 23.989-27.581-1.32-.188-2.632-.406-3.998-.406-15.454 0-27.987 12.525-27.987 27.987s12.533 27.987 27.987 27.987c1.366 0 2.678-.219 3.998-.406-13.541-1.952-23.989-13.494-23.989-27.581z" fill="#fff" opacity=".3"/><path d="m108.067 323.984c0 14.087-10.448 25.629-23.989 27.581 1.32.188 2.632.406 3.999.406 15.454 0 27.987-12.525 27.987-27.987s-12.533-27.987-27.987-27.987c-1.367 0-2.679.219-3.999.406 13.541 1.952 23.989 13.493 23.989 27.581z" opacity=".3"/><path d="m84.079 311.99 15.992 11.994-15.992 11.995z" fill="#f5f7fa"/><path d="m4.115 271.992h7.996v143.935h-7.996z" fill="#fff" opacity=".3"/><path d="m164.042 271.992h7.997v143.935h-7.997z" opacity=".3"/><circle cx="252.002" cy="136.055" fill="#ffce54" r="15.992"/><circle cx="375.945" cy="307.977" fill="#ffce54" r="12.244"/><path d="m371.697 307.977c0-5.357 3.459-9.855 8.246-11.526-1.258-.438-2.593-.719-3.998-.719-6.763 0-12.244 5.481-12.244 12.245 0 6.762 5.481 12.244 12.244 12.244 1.405 0 2.74-.289 3.998-.727-4.787-1.663-8.246-6.161-8.246-11.517z" fill="#fff" opacity=".5"/><path d="m267.994 101.57v-21.49h31.986z" fill="#ffce54"/><path d="m180.035 32.103h15.992v151.931h-15.992z" fill="#656d78"/><path d="m180.035 32.103h7.996v151.931h-7.996z" fill="#fff" opacity=".3"/><path d="m196.027 32.103h7.997v151.931h-7.997z" opacity=".3"/><path d="m331.965 32.103h7.997v151.931h-7.997z" opacity=".3"/><path d="m491.893 383.941h-79.964l39.981-63.97z" fill="#f5f7fa"/><path d="m451.91 319.971-39.981 63.97h7.996l35.983-57.575z" fill="#fff"/><path d="m423.923 364.747-11.994 19.194h-39.982l31.986-47.978z" fill="#e6e9ed"/><path d="m403.933 335.963-31.986 47.978h7.996l28.066-42.105z" fill="#fff"/><path d="m419.714 358.688-15.781 25.253h7.996l11.994-19.194z" opacity=".3"/><path d="m339.962 271.992h8.004v143.935h-8.004z" fill="#fff" opacity=".3"/><path d="m499.881 271.992h8.004v143.935h-8.004z" opacity=".3"/><g fill="#3a3847"><path d="m259.998 483.896c-47.923 0-94.285-17.227-130.542-48.524-1.671-1.438-1.851-3.967-.414-5.639 1.46-1.679 3.983-1.843 5.646-.406 34.796 30.033 79.3 46.573 125.31 46.573 46.018 0 90.529-16.54 125.326-46.589 1.671-1.429 4.186-1.265 5.646.422 1.437 1.672 1.257 4.193-.414 5.639-36.257 31.289-82.618 48.524-130.558 48.524z"/><path d="m453.917 259.998c-1.952 0-3.662-1.438-3.951-3.428-.547-3.819-1.194-7.591-1.96-11.335-11.144-54.358-45.409-101.231-93.996-128.594-1.929-1.081-2.608-3.521-1.522-5.442 1.077-1.937 3.545-2.604 5.442-1.523 50.609 28.499 86.297 77.324 97.916 133.955.797 3.896 1.461 7.824 2.039 11.799.312 2.187-1.203 4.213-3.39 4.529-.195.027-.383.039-.578.039z"/><path d="m66.079 259.998c-.195 0-.383-.012-.578-.039-2.179-.316-3.701-2.339-3.389-4.525 8.73-60.94 46.096-115.436 99.97-145.773 1.89-1.089 4.35-.413 5.443 1.523 1.085 1.921.406 4.361-1.523 5.442-51.718 29.128-87.593 81.443-95.972 139.94-.289 1.995-1.999 3.432-3.951 3.432z"/><path d="m507.885 387.939h-167.923c-2.21 0-3.999-1.788-3.999-3.998v-111.949c0-2.21 1.789-3.998 3.999-3.998h167.923c2.21 0 3.998 1.788 3.998 3.998v111.949c0 2.21-1.788 3.998-3.998 3.998zm-163.925-7.996h159.927v-103.953h-159.927z"/><path d="m507.885 403.932h-167.923c-2.21 0-3.999-1.788-3.999-3.998s1.789-3.998 3.999-3.998h167.923c2.21 0 3.998 1.788 3.998 3.998s-1.788 3.998-3.998 3.998z"/><path d="m507.885 419.925h-167.923c-2.21 0-3.999-1.788-3.999-3.998s1.789-3.998 3.999-3.998h167.923c2.21 0 3.998 1.788 3.998 3.998s-1.788 3.998-3.998 3.998z"/><path d="m411.929 387.939c-.727 0-1.46-.195-2.116-.609-1.874-1.171-2.444-3.639-1.273-5.513l39.982-63.971c1.171-1.874 3.654-2.429 5.505-1.265 1.874 1.171 2.444 3.639 1.272 5.513l-39.981 63.971c-.757 1.21-2.062 1.874-3.389 1.874z"/><path d="m491.893 387.939c-1.328 0-2.632-.664-3.39-1.874l-39.981-63.971c-1.172-1.874-.602-4.342 1.272-5.513 1.866-1.164 4.334-.609 5.505 1.265l39.982 63.971c1.171 1.874.602 4.342-1.273 5.513-.655.414-1.39.609-2.115.609z"/><path d="m371.947 387.939c-.766 0-1.539-.219-2.218-.672-1.835-1.226-2.335-3.701-1.109-5.544l31.985-47.979c1.227-1.843 3.725-2.327 5.545-1.108 1.835 1.226 2.334 3.701 1.108 5.544l-31.985 47.979c-.773 1.155-2.038 1.78-3.326 1.78z"/><path d="m423.127 368.745c-1.289 0-2.554-.625-3.327-1.78l-19.194-28.784c-1.226-1.835-.727-4.318 1.109-5.544 1.812-1.219 4.311-.734 5.544 1.108l19.194 28.784c1.227 1.835.727 4.318-1.108 5.544-.68.453-1.453.672-2.218.672z"/><path d="m375.945 323.969c-8.816 0-15.993-7.169-15.993-15.992 0-8.824 7.177-15.993 15.993-15.993s15.992 7.169 15.992 15.993c.001 8.823-7.175 15.992-15.992 15.992zm0-23.99c-4.412 0-7.996 3.593-7.996 7.997 0 4.403 3.584 7.996 7.996 7.996s7.996-3.593 7.996-7.996c0-4.404-3.584-7.997-7.996-7.997z"/><path d="m339.962 188.031h-159.927c-2.21 0-3.999-1.788-3.999-3.998v-151.93c0-2.21 1.789-3.998 3.999-3.998h159.927c2.21 0 3.998 1.788 3.998 3.998v151.931c0 2.209-1.788 3.997-3.998 3.997zm-155.929-7.996h151.93v-143.934h-151.93z"/><path d="m267.994 140.053c-2.209 0-3.998-1.788-3.998-3.998v-55.975c0-2.21 1.789-3.998 3.998-3.998 2.21 0 3.998 1.788 3.998 3.998v55.975c0 2.21-1.788 3.998-3.998 3.998z"/><path d="m252.002 156.046c-11.026 0-19.991-8.969-19.991-19.991s8.965-19.991 19.991-19.991 19.99 8.969 19.99 19.991-8.964 19.991-19.99 19.991zm0-31.985c-6.614 0-11.995 5.38-11.995 11.994s5.38 11.995 11.995 11.995 11.994-5.381 11.994-11.995-5.38-11.994-11.994-11.994z"/><path d="m299.98 84.078h-31.986c-2.209 0-3.998-1.788-3.998-3.998s1.789-3.998 3.998-3.998h31.986c2.209 0 3.998 1.788 3.998 3.998s-1.789 3.998-3.998 3.998z"/><path d="m275.991 100.071c-1.289 0-2.554-.625-3.327-1.78-1.226-1.839-.727-4.318 1.109-5.545l23.988-15.992c1.82-1.219 4.311-.734 5.545 1.108 1.226 1.84.727 4.318-1.109 5.545l-23.988 15.992c-.68.454-1.453.672-2.218.672z"/><path d="m196.027 180.035c-2.21 0-3.998-1.789-3.998-3.999v-135.937c0-2.21 1.788-3.998 3.998-3.998s3.998 1.788 3.998 3.998v135.938c0 2.209-1.788 3.998-3.998 3.998z"/><path d="m184.033 76.082h-3.998c-2.21 0-3.999-1.788-3.999-3.998s1.789-3.998 3.999-3.998h3.998c2.21 0 3.998 1.788 3.998 3.998s-1.788 3.998-3.998 3.998z"/><path d="m184.033 52.093h-3.998c-2.21 0-3.999-1.788-3.999-3.998s1.789-3.998 3.999-3.998h3.998c2.21 0 3.998 1.788 3.998 3.998s-1.788 3.998-3.998 3.998z"/><path d="m184.033 100.071h-3.998c-2.21 0-3.999-1.788-3.999-3.998s1.789-3.998 3.999-3.998h3.998c2.21 0 3.998 1.788 3.998 3.998s-1.788 3.998-3.998 3.998z"/><path d="m184.033 124.061h-3.998c-2.21 0-3.999-1.788-3.999-3.998s1.789-3.999 3.999-3.999h3.998c2.21 0 3.998 1.789 3.998 3.999s-1.788 3.998-3.998 3.998z"/><path d="m184.033 148.05h-3.998c-2.21 0-3.999-1.789-3.999-3.999s1.789-3.998 3.999-3.998h3.998c2.21 0 3.998 1.788 3.998 3.998s-1.788 3.999-3.998 3.999z"/><path d="m184.033 172.038h-3.998c-2.21 0-3.999-1.788-3.999-3.998s1.789-3.998 3.999-3.998h3.998c2.21 0 3.998 1.788 3.998 3.998s-1.788 3.998-3.998 3.998z"/><path d="m20.35 403.932c-2.21 0-4.037-1.788-4.037-3.998s1.749-3.998 3.951-3.998h.086c2.202 0 3.998 1.788 3.998 3.998s-1.796 3.998-3.998 3.998z"/><path d="m36.343 403.932c-2.21 0-4.037-1.788-4.037-3.998s1.749-3.998 3.951-3.998h.086c2.202 0 3.998 1.788 3.998 3.998s-1.796 3.998-3.998 3.998z"/><path d="m156.288 403.932c-2.21 0-4.037-1.788-4.037-3.998s1.749-3.998 3.951-3.998h.086c2.202 0 3.998 1.788 3.998 3.998s-1.796 3.998-3.998 3.998z"/><path d="m140.295 403.932c-2.21 0-4.037-1.788-4.037-3.998s1.749-3.998 3.951-3.998h.086c2.202 0 3.999 1.788 3.999 3.998s-1.797 3.998-3.999 3.998z"/><path d="m172.039 419.925h-167.924c-2.21 0-3.998-1.788-3.998-3.998v-143.935c0-2.21 1.788-3.998 3.998-3.998h167.923c2.209 0 3.998 1.788 3.998 3.998v143.935c.001 2.21-1.788 3.998-3.997 3.998zm-163.926-7.996h159.927v-135.939h-159.927z"/><path d="m80.081 387.939h-67.97c-2.209 0-3.998-1.788-3.998-3.998s1.789-3.998 3.998-3.998h67.969c2.21 0 3.998 1.788 3.998 3.998s-1.787 3.998-3.997 3.998z"/><path d="m164.042 387.939h-67.969c-2.21 0-3.998-1.788-3.998-3.998s1.788-3.998 3.998-3.998h67.969c2.21 0 3.998 1.788 3.998 3.998s-1.788 3.998-3.998 3.998z"/><path d="m88.077 395.936c-6.614 0-11.995-5.38-11.995-11.994s5.381-11.994 11.995-11.994 11.994 5.38 11.994 11.994-5.38 11.994-11.994 11.994zm0-15.993c-2.202 0-3.999 1.796-3.999 3.998s1.796 3.998 3.999 3.998 3.998-1.796 3.998-3.998-1.796-3.998-3.998-3.998z"/><path d="m88.077 355.954c-17.641 0-31.985-14.353-31.985-31.985s14.345-31.985 31.985-31.985 31.985 14.353 31.985 31.985-14.345 31.985-31.985 31.985zm0-55.975c-13.229 0-23.989 10.761-23.989 23.989s10.761 23.989 23.989 23.989 23.989-10.761 23.989-23.989-10.761-23.989-23.989-23.989z"/><path d="m84.079 339.914c-.609 0-1.226-.141-1.788-.421-1.351-.68-2.21-2.062-2.21-3.577v-23.988c0-1.516.859-2.897 2.21-3.577 1.343-.671 2.975-.53 4.186.375l15.993 11.995c1.007.757 1.601 1.943 1.601 3.201 0 1.257-.593 2.444-1.601 3.201l-15.993 11.995c-.704.53-1.547.796-2.398.796zm3.998-19.99v7.996l5.333-3.998z"/><path d="m256 355.954c-19.163 0-36.796-9.651-47.15-25.816-1.194-1.858-.648-4.326 1.21-5.521 1.835-1.195 4.318-.656 5.521 1.21 8.879 13.853 23.989 22.131 40.419 22.131 26.457 0 47.979-21.521 47.979-47.979 0-2.21 1.788-3.998 3.998-3.998s3.998 1.788 3.998 3.998c0 30.862-25.114 55.975-55.975 55.975z"/><path d="m204.024 303.978c-2.21 0-3.999-1.788-3.999-3.998 0-30.86 25.114-55.966 55.975-55.966 19.163 0 36.788 9.647 47.158 25.808 1.194 1.858.656 4.326-1.203 5.521-1.866 1.179-4.334.655-5.528-1.211-8.895-13.849-24.005-22.122-40.427-22.122-26.457 0-47.978 21.514-47.978 47.97 0 2.209-1.789 3.998-3.998 3.998z"/><path d="m299.98 307.992c-1.023 0-2.047-.391-2.827-1.172-1.562-1.562-1.562-4.092 0-5.654l7.996-7.996c1.562-1.562 4.092-1.562 5.653 0 1.562 1.562 1.562 4.092 0 5.654l-7.996 7.996c-.781.782-1.803 1.172-2.826 1.172z"/><path d="m315.973 307.992c-1.023 0-2.046-.391-2.827-1.172l-7.996-7.996c-1.562-1.562-1.562-4.092 0-5.654s4.092-1.562 5.653 0l7.996 7.996c1.562 1.562 1.562 4.093 0 5.654-.78.782-1.803 1.172-2.826 1.172z"/><path d="m204.024 311.99c-1.023 0-2.046-.391-2.827-1.172-1.562-1.562-1.562-4.092 0-5.653l7.996-7.997c1.562-1.562 4.092-1.562 5.653 0 1.562 1.562 1.562 4.092 0 5.654l-7.996 7.996c-.78.782-1.803 1.172-2.826 1.172z"/><path d="m204.024 311.99c-1.023 0-2.046-.391-2.827-1.172l-7.997-7.996c-1.562-1.562-1.562-4.092 0-5.654s4.092-1.562 5.654 0l7.996 7.997c1.562 1.562 1.562 4.092 0 5.653-.78.782-1.803 1.172-2.826 1.172z"/></g></svg>